<svg xmlns="http://www.w3.org/2000/svg" viewBox="0 0 512 512"><circle cx="256" cy="256" r="256" fill="#304022"/><g fill="none" stroke="#fff"><g stroke-width="11.049" stroke-linecap="round" stroke-linejoin="bevel"><path d="M256.154 188.778c-.384-67.664-79.813-102.265-128.562-54.362-46.211 48.057-14.379 130.407 53.362 131.022m0 .231c-40.906-.692-76.122 36.139-75.276 76.737-.846 40.445 34.37 77.429 75.276 76.66m150.629-153.628c67.741-.615 99.651-82.965 53.285-131.022-48.518-47.98-128.177-13.148-128.485 54.362"/><path d="M180.954 265.669c-67.741.692-99.574 82.965-53.362 131.022 48.595 47.98 128.254 13.225 128.562-54.285m75.43-76.968c67.741.692 99.574 82.965 53.362 131.022-48.595 47.98-128.254 13.225-128.562-54.285"/></g><g stroke-width="5.528"><path d="M428.236 187.855c-1.692-103.418-137.327-134.713-181.54-40.291m10.688-19.607c-58.283-73.815-172.697-32.14-173.389 60.821" stroke-linecap="round" stroke-linejoin="bevel"/><path d="M83.764 188.778v230.288m344.472-230.288v230.288" stroke-linejoin="round" stroke-linecap="round"/></g></g></svg>