<svg xmlns="http://www.w3.org/2000/svg" viewBox="0 0 512 512"><path fill="#fff" d="M0 512V0h512v512z"/><g fill="none" stroke="#304022" stroke-linecap="round"><g stroke-linejoin="bevel"><g stroke-width="14.37"><path d="M256.2 170.4c-.5-88-103.8-133-167.2-70.7-60.1 62.5-18.7 169.6 69.4 170.4m0 .3c-53.2-.9-99 47-97.9 99.8-1.1 52.6 44.7 100.7 97.9 99.7m195.9-199.8c88.1-.8 129.6-107.9 69.3-170.4-63.1-62.4-166.7-17.1-167.1 70.7"/><path d="M158.4 270.4c-88.1.9-129.5 107.9-69.4 170.4 63.2 62.4 166.8 17.2 167.2-70.6m98.1-100.1c88.1.9 129.5 107.9 69.4 170.4-63.2 62.4-166.8 17.2-167.2-70.6"/></g><path d="M480 169.2C477.8 34.7 301.4-6 243.9 116.8m13.9-25.5C182-4.7 33.2 49.5 32.3 170.4" stroke-width="7.19"/></g><path d="M32,170.4V469.9M480,170.4V469.9" stroke-linejoin="round" stroke-width="7.19"/></g></svg>