<svg xmlns="http://www.w3.org/2000/svg" width="1024" height="1024"><circle cx="512" cy="512" r="507" fill="#304022"/><g fill="none" stroke="#fff" stroke-linecap="round"><g stroke-linejoin="bevel"><g stroke-width="10.85"><path stroke-width="17.054464" d="M520.022 335.755c-.628-104.37-123.232-157.813-198.366-83.78-71.362 74.035-22.163 201.197 82.207 202.14m0 .471c-63.03-1.1-117.416 55.8-116.002 118.36-1.414 62.56 52.972 119.46 116.002 118.36m232.633-237.191c104.527-.943 153.726-128.105 82.207-202.14-74.82-74.19-197.895-20.433-198.366 83.78"/><path stroke-width="17.054464" d="M403.863 454.586c-104.527.943-153.569 127.948-82.207 202.14 74.82 74.19 197.895 20.433 198.366-83.78m116.474-118.831c104.527 1.1 153.726 128.105 82.207 202.296-74.82 74.034-197.895 20.434-198.366-83.78"/></g><path stroke-width="8.535091199999998" d="M785.664 334.34c-2.672-159.542-211.885-207.797-280.26-62.087m16.505-30.337c-90.067-113.958-266.585-49.67-267.528 93.839"/></g><path stroke-linejoin="round" stroke-width="8.535091199999998" d="M253.91 335.755v355.55m531.754-355.55v355.55"/><g stroke-linejoin="bevel" stroke-width="4.07"><path stroke-width="6.3973888" d="M250.452 690.991c0-38.038-48.885-54.543-75.449-29.708-26.564 24.836-6.602 70.89 30.965 70.733"/><path stroke-width="6.3973888" d="M205.968 732.016c-37.567-.628-60.044 42.912-31.75 70.419 28.292 27.507 75.29 9.117 75.762-28.765m280.417 41.34c-24.05-1.1-31.123-34.424-17.29-50.77 17.447-20.12 42.282-1.887 41.496 21.062"/><path stroke-width="6.3973888" d="M554.603 785.302c-.629-22.95 24.206-41.182 41.654-21.063 13.832 16.347 6.759 49.67-17.29 50.77"/></g></g><path fill="#fff" d="M244.479 772.57c0-6.445-.158-11.789-.472-16.976h9.745l.63 10.374h.314a22.32 22.32 0 0 1 20.276-11.789c8.331 0 21.535 5.187 21.535 26.564v37.096h-11.16V782c0-10.06-3.616-18.39-14.147-18.39a16.033 16.033 0 0 0-14.933 11.631 17.447 17.447 0 0 0-.628 5.187v37.41h-11.16zm82.993-34.738v17.762h15.875v8.645h-15.875v33.638c0 7.702 2.2 12.103 8.33 12.103a27.193 27.193 0 0 0 6.445-.786l.472 8.488a29.08 29.08 0 0 1-9.746 1.414c-5.187 0-9.43-1.571-12.103-4.715-2.672-3.144-4.244-8.802-4.244-16.19v-33.952h-9.43v-8.645h9.43v-14.775zm28.45 37.253c0-7.388-.157-13.675-.471-19.491h9.745l.314 12.26h.472c2.83-8.33 9.431-13.675 16.976-13.675a9.431 9.431 0 0 1 3.144.472v10.688a13.046 13.046 0 0 0-3.773-.471c-7.86 0-13.36 6.13-14.932 14.618a26.564 26.564 0 0 0-.472 5.187v33.166h-11.003zm46.212 13.675c.315 15.404 9.903 21.691 21.063 21.691a37.724 37.724 0 0 0 16.819-3.3l1.886 8.173a49.827 49.827 0 0 1-20.277 3.772c-18.862 0-30.022-12.574-30.022-31.28 0-18.704 10.846-33.637 28.608-33.637 17.761 0 25.306 17.92 25.306 29.394a32.38 32.38 0 0 1-.471 5.187zm32.695-8.017c0-7.23-2.987-18.39-15.562-18.39-12.574 0-16.032 10.531-16.975 18.39zm236.405 20.12q0 9.745.471 16.976h-9.902l-.63-10.06h-.156a23.106 23.106 0 0 1-20.277 11.475c-9.588 0-21.063-5.345-21.063-27.193v-36.467h11.003v34.58c0 11.79 3.615 19.806 13.675 19.806a16.19 16.19 0 0 0 14.775-10.374 16.662 16.662 0 0 0 .944-5.816v-38.196h11.16zm16.818 5.501a28.765 28.765 0 0 0 14.776 4.402c8.016 0 11.788-4.087 11.788-9.274 0-5.187-3.143-8.331-11.317-11.317-11.003-4.087-16.19-10.217-16.19-17.605 0-10.06 8.017-18.39 21.063-18.39a30.337 30.337 0 0 1 15.09 3.929l-2.83 8.174a22.792 22.792 0 0 0-12.417-3.616c-6.602 0-10.217 3.93-10.217 8.488 0 4.559 3.615 7.545 11.631 10.532 10.532 4.244 16.033 9.588 16.033 18.862s-8.33 18.547-22.949 18.547a34.423 34.423 0 0 1-17.133-4.086zm104.37-50.77c-.314 4.558-.628 9.588-.628 17.133v36.152c0 14.304-2.672 23.106-8.645 28.45-5.973 5.345-14.461 7.388-22.163 7.388s-15.561-1.729-20.434-5.03l2.83-8.645a34.266 34.266 0 0 0 17.918 4.873c11.317 0 19.648-6.13 19.648-21.691v-7.074h-.157a22.006 22.006 0 0 1-19.49 10.532c-15.248 0-26.093-13.204-26.093-30.337 0-21.22 13.517-33.166 27.664-33.166 10.531 0 16.347 5.659 19.02 10.846h.314l.471-9.431zm-11.474 24.678a17.447 17.447 0 0 0-.629-5.187 16.19 16.19 0 0 0-15.56-11.946c-10.69 0-18.234 9.117-18.234 23.577 0 14.461 5.973 22.32 18.076 22.32a16.347 16.347 0 0 0 15.404-11.631 19.805 19.805 0 0 0 .943-5.973zm84.722 5.973c0 23.106-15.718 33.009-30.493 33.009-14.776 0-29.236-12.26-29.236-31.909 0-19.648 13.36-33.166 30.336-33.166s29.393 13.047 29.393 32.066zm-48.57.629c0 13.675 7.703 23.892 18.548 23.892 10.846 0 18.705-10.06 18.705-24.05 0-10.688-5.187-24.049-18.39-24.049-13.204 0-18.862 12.418-18.862 24.207z"/></svg>