<svg xmlns="http://www.w3.org/2000/svg" viewBox="0 0 512 512"><path d="M495.725 245.425c4.434-1.927 8.296-4.914 11.143-8.815.028-.036.053-.074.082-.112 4.921-6.814 6.326-15.299 3.86-23.277-2.558-8.274-8.919-14.786-17.457-17.874-1.034-.378-2.078-.729-3.121-1.078l-1.987-.683c-.723-.264-1.528-.598-2.55-1.053a21.25 21.25 0 0 1-2.429-1.448c-1.192-.82-2.56-1.774-3.825-2.725-1.11-.938-2.251-2.031-3.402-3.254-1.173-1.248-2.427-2.69-3.757-4.216l-1.868-2.136c-1.528-1.736-3.074-3.691-4.793-5.882l-.911-1.16c-1.362-1.728-2.652-3.365-3.671-4.828-1.176-1.785-2.508-3.849-3.644-5.829-.463-.809-.919-1.67-1.379-2.53l-.723-1.346-.762-1.399-1.273-2.375 3.071-2.852c1.903-1.815 3.52-3.598 4.818-5.034l.324-.357a162.43 162.43 0 0 0 8.535-10.238c3.38-4.392 5.996-8.858 8.108-12.645a136.73 136.73 0 0 0 1.676-3.121c.896-1.703 1.958-3.789 2.911-6.397 1.14-3.136 1.953-6.369 2.558-10.178.208-1.307.36-2.467.469-3.616.362-3.824.06-6.956-.323-9.778-.324-2.421-.866-6.462-2.813-11.016-1.374-3.203-2.974-5.478-3.833-6.703-.882-1.253-2.264-3.12-4.227-5.064-2.438-2.412-5.399-4.505-8.56-6.054l-.091-.046c-2.695-1.307-5.317-2.229-8.017-2.821l-.082-.017c-.864-.194-2.476-.556-4.53-.756l-.142-.014a35.38 35.38 0 0 0-3.21-.142c-.496 0-.989.009-1.469.028l-.222.008c-.576.022-1.149.063-1.722.118.129-7.715-2.901-15.11-8.403-20.527-5.047-5.056-12.006-8.329-19.694-9.245-1.401-.167-2.852-.253-4.297-.253a34.29 34.29 0 0 0-1.387.027c-14.114.537-25.606 9.564-28.596 22.463l-3.128 13.75-1.665 7.891-.694 3.353-2.007 10.167c-1.58-.269-3.084-.442-4.576-.524-.789-.044-1.59-.068-2.382-.068a42.56 42.56 0 0 0-1.618.031c-3.049.115-6.147.567-9.209 1.343-2.188.554-3.943 1.236-5.369 1.831a50.96 50.96 0 0 0-5.476 2.663c-2.879 1.618-5.128 3.331-6.772 4.581l-.275.209c-.219.165-.414.326-.619.488-2.634-1.96-5.643-3.569-8.985-4.749l-.29-.101c-3.759-1.275-7.671-1.924-11.631-1.924l-.543.005-1.014.03a25.15 25.15 0 0 0-2.665.255l-.184.028-1.692.255a24.42 24.42 0 0 0-1.711.321c-4.584 1.026-8.793 3.071-12.376 5.991-2.355-.6-4.766-.978-7.216-1.121l-.143-.008-2.127-.099c.848-2.663 1.373-5.059 1.804-7.028l.046-.211c.694-3.155 1.009-6.035 1.272-8.714a51.86 51.86 0 0 0 .186-7.165c-.118-2.961-.593-5.977-1.45-9.191-2.622-9.89-10.344-17.792-20.645-21.104-3.438-1.108-7.036-1.67-10.687-1.67l-.519.003c-8.126.121-16.317 3.096-23.075 8.377-3.962 3.095-7.348 6.533-10.055 10.214l-.395.529c-.516.685-1.223 1.623-1.977 2.745l-1.017 1.516-.834 1.242c-.875 1.305-1.538 2.46-2.023 3.304l-.307.529c-.608 1.017-1.125 1.947-1.643 2.892-2.427 4.404-4.368 8.091-6.092 11.576.286-1.114.553-2.289.779-3.515.592-3.199 1.162-7.074.908-11.587-.19-3.375-.623-7.896-2.297-12.902-1.454-4.365-3.498-7.677-5.113-10.073-1.489-2.204-3.206-4.179-5.258-6.046-2.445-2.227-4.924-3.99-7.572-5.384-5.796-3.049-12.207-4.661-18.54-4.661l-.559.005c-2.906.043-5.79.422-8.576 1.129-2.859.726-5.053 1.686-6.363 2.26l-.277.121c-.94.406-1.725.795-2.245 1.052l-.179.088c-3.408 1.683-6.056 3.539-7.99 4.894-1.122.785-1.988 1.508-2.454 1.895l-.063.052c-.811.647-1.637 1.352-2.427 2.068a97.4 97.4 0 0 0-3.114 2.964c-2.848 2.826-5.733 5.912-8.823 9.438l-.604.693a28.37 28.37 0 0 0-1.771-2.007c-4.881-5.117-11.677-8.529-19.255-9.651-1.722-.261-3.482-.394-5.236-.394l-.452.002c-.038.002-.079.002-.118.003a33.9 33.9 0 0 0-1.919.085c-1.982.143-3.962.458-5.889.937a25.1 25.1 0 0 0-3.325 1.074l-.757.304-.716.288a25.43 25.43 0 0 0-2.333 1.078c-3.72 1.955-6.876 4.628-9.38 7.945-1.854 2.454-3.244 5.228-4.097 8.182l-.441 1.5-.479 1.601-.049.162-.948 3.15-.134.46-.072.239-.803 2.689c-.145.494-.275.995-.39 1.499-.257 1.122-.493 2.248-.705 3.345-.951 4.927-1.461 9.678-1.903 14.121-.795 7.957-1.344 16.317-1.636 24.837l-.338 17.602-.079 6.175c-.148 9.948.005 17.638.491 24.933.332 5.023.793 9.695 1.41 14.271l.412 2.963.373 2.681.047.354c.271 1.999.576 4.264 1.064 6.747.006.033.013.063.017.095l.541 2.558-1.148.6c-1.273.669-2.407 1.325-3.318 1.853l-.104.061c-3.274 1.898-7.093 4.321-10.753 7.982-3.188 3.189-5.667 6.918-7.59 11.408-1.248 2.909-2.031 5.801-2.383 8.826-.23 1.92-.213 3.658-.12 5.058l-2.087.661c-13.316 4.596-23.618 10.926-31.5 19.351-4.544 4.866-8.071 10.58-10.49 16.996-1.341 3.548-2.009 6.81-2.441 9.254-.519 2.939-.779 6.056-.767 9.25.017 3.901.51 7.776 1.462 11.541.944 3.71 2.251 7.096 3.89 10.096 5.055 9.283 13.282 16.206 23.152 19.469 2.183.723 5.651 1.585 9.753 1.585.911 0 1.81-.052 2.703-.135a93.94 93.94 0 0 0-2.158 5.927c-1.436 4.467-2.523 9.369-3.329 14.997-.642 4.491-1.311 9.772-1.127 15.669.29 9.221 1.138 20.106 5.24 30.911.792 2.089 1.887 4.866 3.304 7.738 2.437 4.921 5.983 9.399 10.276 12.993 5.177 4.327 10.392 7.172 15.965 8.71 2.004.549 4.37 1.14 7.209 1.495 2.331.293 4.406.389 6.303.45a51.17 51.17 0 0 0 1.576.025c4.497 0 8.927-.62 13.169-1.845 5.053-1.453 9.412-3.465 13.308-6.144 4.485-3.076 8.063-6.496 10.917-10.443 1.521-2.097 3-4.362 4.511-6.91 1.579-2.654 3.046-5.609 4.471-9.002l2.558-6.378c1.669-4.444 2.745-8.64 3.694-12.343l.309-1.198.787-3.018 3.203-12.95a80.53 80.53 0 0 0 2.791-.464c1.083-.142 2.136-.351 3.173-.589a139.8 139.8 0 0 0-.263 13.764c.083 2.822.362 5.639.875 8.832.427 2.626 1.039 5.744 2.39 9.169a44.24 44.24 0 0 0 2.922 6.019c.7 1.196 1.432 2.308 2.199 3.345l.06.085c.911 1.283 2.788 3.927 5.95 6.511 4.131 3.378 8.881 5.813 14.11 7.227a35.84 35.84 0 0 0 9.393 1.251 34.98 34.98 0 0 0 2.602-.096c2.884-.206 5.738-.767 8.48-1.659 3.778-1.24 6.588-2.937 8.377-4.11 2.487-1.62 4.787-3.589 6.956-5.961a36.01 36.01 0 0 0 7.277 2.958c3.128.885 6.32 1.325 9.534 1.325a34.51 34.51 0 0 0 2.553-.093c2.39-.173 4.768-.593 7.066-1.248 4.033-1.146 7.798-3.158 11.082-5.878 3.15 1.121 5.875 1.499 7.357 1.705l.146.021c.057.008.115.017.172.022 1.45.194 2.931.29 4.404.29.82 0 1.651-.03 2.471-.09l.349-.027.346 2.267c.145.877.31 1.725.479 2.574l.11.559c.623 3.148 1.711 6.246 3.232 9.201 1.577 3.051 3.49 5.897 5.708 8.514 1.618 1.908 3.411 3.587 5.341 5.001l.079.06c1.149.847 3.29 2.427 6.196 3.828 4.985 2.402 10.183 3.62 15.448 3.62.803 0 1.617-.031 2.415-.088 2.166-.157 4.327-.53 6.416-1.108 7.934-2.213 14.564-7.463 18.712-14.794 1.381-2.445 2.142-4.549 2.55-5.679l.031-.088a39.59 39.59 0 0 0 1.159-3.639l.08-.301a44.96 44.96 0 0 0 .551-2.21l.776-3.724 1.184-6.932.929-5.495.261-1.454 1.151.139.206.024a33.88 33.88 0 0 0 3.846.219c.848 0 1.714-.031 2.572-.094 2.747-.198 5.461-.702 8.071-1.497 1.686-.515 3.145-1.125 4.334-1.694l.264.23c4.245 3.674 8.455 5.497 11.644 6.666 3.526 1.303 6.682 1.766 9.031 2.021 1.234.135 2.52.205 3.798.205.872 0 1.761-.033 2.646-.098l.316-.024a83.45 83.45 0 0 0-2.015 3.38c-1.239 2.207-2.752 4.902-4.094 8.116-.973 2.323-1.913 4.749-2.781 7.189l-.231.642c-.803 2.218-1.914 5.287-2.615 9.076-.444 2.388-.978 5.59-1.177 9.067-.198 3.41-.286 7.167.401 11.447.554 3.439 1.305 7.502 3.208 12.028l.038.09c.822 1.933 1.689 3.545 2.264 4.612l.065.12.403.757 1.255 2.306c4.123 7.283 9.453 12.809 15.834 16.401 2.323 1.318 4.437 2.095 5.574 2.514l.323.12c3.041 1.138 5.659 1.579 7.076 1.818l.219.038.173.028a34.27 34.27 0 0 0 4.041.491 51.66 51.66 0 0 0 2.988.087 62.26 62.26 0 0 0 4.467-.172l.255-.019a1.03 1.03 0 0 1 .098-.006c3.578-.282 7.271-.9 11.288-1.895 5.994-1.473 10.657-4.211 13.44-5.846 3.331-1.965 6.013-3.852 8.475-5.958 1.546-1.322 2.8-2.561 3.806-3.553l.614-.604.23-.227c.683-.666 1.535-1.497 2.456-2.476 1.595-1.697 3.69-3.997 5.742-6.734 1.554-2.07 2.752-4 3.716-5.554l.63-1.007c1.829-2.887 3.084-5.618 4.001-7.611l.301-.655 1.617-3.556.872-1.938c2.383-5.239 4.289-10.013 5.831-14.6 1.226-3.638 2.32-7.329 3.285-10.588l.461-1.558 3.446-11.789.798-2.737.061-.211 2.52-8.889c.718-2.676 1.38-5.456 2.078-8.706.179-.653.334-1.314.461-1.982l.049-.247.145-.715.022-.124.024-.124c.072-.386.135-.773.19-1.166l.889-4.494 1.458-7.299 2.489-12.327c.625-3.273 1.154-6.455 1.665-9.533l.474-2.832c.567-3.34 1.028-6.753 1.436-9.764l.376-2.761 1.733-11.837c.233-1.494.564-3.151.911-4.907l1.231-6.674c.457-2.838.774-5.091 1.023-7.263l.416-3.795.242-2.248.176-1.61 1.36-13.619c.049-.601.077-1.204.083-1.806.083-7.995-3.206-15.581-9.062-20.975-2.078-1.953-4.417-3.583-6.956-4.897"/><g fill="#fff"><path d="M242.463 250.693a9.68 9.68 0 0 0-2.161.408c-1.144.395-2.8 1.275-2.832 2.731l-.233 4.445a16.35 16.35 0 0 1-.767 3.469l-.751 1.761c-.398.83-.894 1.58-1.425 2.328l-1.355 1.988-.784 1.067-.386.461-.186.205a2.28 2.28 0 0 0-.53 1.222.31.31 0 0 0-.036.23c-.008.779.286 1.428.886 1.939.743.65 1.596 1.1 2.556 1.347l1.854.337c1.097.093 2.577-.031 3.635-.395.612-.209 1.355-.586 1.933-.974a9.19 9.19 0 0 0 1.081-.828c.918-.841 1.779-1.697 2.585-2.638.49-.573.938-1.174 1.344-1.81.449-.704.774-1.475 1.094-2.243.724-1.744 1.483-3.548 1.754-5.434.255-1.785.302-3.605.34-5.404.011-.91-.334-1.664-1.031-2.265-1.256-1.245-3.263-1.783-4.962-1.928a9.81 9.81 0 0 0-1.625-.019m-160.098-25.46c.545-1.017 1.284-1.857 2.147-2.63 3.019-2.448 6.364-4.483 9.802-6.285l10.222-5.316a242.33 242.33 0 0 1 10.55-5.133l10.41-4.707 22.283-9.752 6.655-2.81c7.052-2.777 14.153-5.406 21.295-7.946l5.653-1.944-3.606 4.046c-1.615 1.777-3.384 3.397-5.193 4.971-3.022 2.342-6.136 4.556-9.21 6.829l-9.35 6.895a123.25 123.25 0 0 1-4.497 3.025c-1.61 1.026-3.211 2.073-4.892 2.981-3.523 1.903-7.102 3.696-10.682 5.491l-10.452 5.218c-3.303 1.626-6.792 2.868-10.163 4.34l-4.387 1.88a86.01 86.01 0 0 1-5.895 1.999l-3.463.982c-.937.249-1.875.449-2.824.625l-6.676.789c-1.382.15-2.763.279-4.148.373-.915.063-1.834.121-2.752.142a12.09 12.09 0 0 1-.855-.985 4.36 4.36 0 0 1-.293-.811c-.022-.762.08-1.543.321-2.265m154.716-104.748c1.223-3.806 2.5-7.59 3.864-11.348l1.854-4.883 2.12-5.45 1.092-2.641c1.448-3.225 2.947-6.422 4.511-9.593.927-1.875 1.891-3.726 2.866-5.576.878-1.661 1.876-3.263 2.859-4.861 1.346-2.19 2.833-4.373 4.744-6.111l.323-.242c.408.9.656 1.846.809 2.844.335 2.992.031 6.065-.48 9.017-.238 1.371-.507 2.758-.922 4.086-.241.776-.433 1.59-.732 2.347l-.841 2.138c-1.477 3.284-3.029 6.559-4.817 9.686-1.902 3.328-3.995 6.531-6.108 9.73-2.188 3.312-4.351 6.648-6.789 9.783a82.34 82.34 0 0 1-6.276 7.192l1.92-6.119M260.6 68.652h0m12.527 96.596c.502-3.669 1.332-7.279 2.232-10.868.864-3.446 1.809-6.865 2.81-10.274l1.495-4.858a78.63 78.63 0 0 1 1.67-4.527c.918-1.935 1.895-3.831 3.134-5.588 1.475-2.09 3.096-4.028 5.004-5.73.321-.244.65-.466 1.004-.653a7.47 7.47 0 0 1 .639-.164 10.18 10.18 0 0 1 .762-.047 9.88 9.88 0 0 1 .56.077 7.71 7.71 0 0 1 .471.164c.501.283.96.628 1.423.968.589.485 1.154.982 1.716 1.505.704.649 1.3 1.451 1.902 2.19 1.094 1.338 2.076 2.767 3.082 4.171l1.409 2.15c.238.362.431.762.644 1.14l.94 1.706a2.08 2.08 0 0 0 .719.768l-2.388 3.543c-1.026 1.604-2.015 3.233-2.988 4.872l-2.94 4.952-2.877 4.71-5.757 9.829-5.931 10.131c-1.868 3.306-3.298 6.849-5.187 10.145-.965 1.686-1.982 3.315-3.115 4.896a59.77 59.77 0 0 1-2.218 2.898c-.09-.905-.061-1.821-.057-2.726l.033-2.714c.055-3.783.26-7.549.527-11.321.269-3.797.763-7.578 1.281-11.345m-200.36 64.793c.173.549.453 1.055.765 1.535.338.524.652 1.022 1.047 1.494.42.502 1.113.962 1.573 1.321.773.601 1.716.952 2.607 1.333.231.098.469.168.71.239.896.271 1.82.475 2.742.641 1.039.189 2.279.201 3.274.22l.814.014c.442.008.885-.017 1.325-.03.94-.03 1.88-.11 2.815-.187 1.853-.154 3.699-.379 5.546-.592 2.508-.288 5.015-.578 7.502-1.015 1.894-.332 3.743-.864 5.585-1.41 1.804-.532 3.603-1.074 5.363-1.743 4.115-1.563 8.118-3.386 12.184-5.073 1.683-.699 3.383-1.363 5.043-2.119 1.798-.817 3.558-1.711 5.322-2.604l10.628-5.327c3.285-1.661 6.602-3.304 9.706-5.287 3.26-2.079 6.492-4.222 9.59-6.537l9.511-7.136c3.428-2.515 6.816-5.072 9.892-8.019 2.684-2.569 5.149-5.391 7.504-8.264 1.225-1.495 2.464-2.983 3.609-4.538 1.121-1.522 2.268-3.048 3.247-4.669l8.348-2.881 4.859-1.721-.406 3.872-.844 11.6c-.179 3.96-.235 7.919-.209 11.885.02 3.746.201 7.469.543 11.198.209 2.279.449 4.562.866 6.816.342 1.84.776 3.641 1.552 5.355a31.94 31.94 0 0 0 1.371 2.649c.628 1.096 1.327 2.188 2.106 3.186.617.789 1.269 1.539 2.007 2.218.548.505 1.143.965 1.752 1.396.685.485 1.541.825 2.3 1.13.211.087.433.142.653.198.606.154 1.165.313 1.772.387 1.209.148 2.443.079 3.619-.242 1.908-.523 3.351-1.843 4.628-3.284.875-.989 1.631-2.122 2.284-3.271 1.025-1.81 1.892-3.674 2.681-5.599 2.923-7.137 4.955-14.62 7.266-21.97 2.09-6.644 4.656-13.157 7.425-19.549 1.554-3.416 3.145-6.824 4.9-10.141.083-.157.173-.309.257-.466-.482 3.189-.922 6.386-1.173 9.601-.293 3.781-.53 7.553-.597 11.348-.035 1.85-.129 3.72.014 5.568.06.785.192 1.596.346 2.372a5.43 5.43 0 0 0 .43 1.255c.368.771.844 1.495 1.335 2.188.263.368.527.738.841 1.064.623.649 1.34 1.217 2.095 1.703a6.2 6.2 0 0 0 .612.329c.523.252 1.044.502 1.582.718 1.075.428 2.141.501 3.276.54 1.018.036 2.123-.285 3.005-.79.499-.286.915-.727 1.346-1.105.45-.395.863-.883 1.229-1.358 1.108-1.445 2.12-2.969 3.118-4.494a93.21 93.21 0 0 0 3.032-4.954c.96-1.687 1.772-3.465 2.6-5.22l2.397-5.13c.841-1.752 1.796-3.439 2.755-5.127l5.469-9.545 5.854-10.104.757-1.303a264.11 264.11 0 0 0-1.713 8.344c-.727 3.869-1.266 7.775-1.831 11.669-.54 3.751-.971 7.502-1.215 11.283-.247 3.842-.192 7.701.024 11.541a61.71 61.71 0 0 0 1.931 12.187c.397 1.499.823 2.992 1.292 4.471.463 1.451.922 2.986 1.645 4.332a23.74 23.74 0 0 0 1.944 3.03c.496.66.998 1.307 1.615 1.854a22.93 22.93 0 0 0 2.918 2.218l1.088.678a6.51 6.51 0 0 0 .502.282c.551.28 1.114.532 1.686.771.631.266 1.336.356 2.007.491 1.251.253 2.962.096 4.075-.592a2.18 2.18 0 0 0 1.171-1.525c.047-.702-.184-1.3-.697-1.793-.275-.227-.456-.535-.664-.819l-.543-.719a29.23 29.23 0 0 1-.612-.837c-.763-1.193-1.494-2.408-2.119-3.68-.806-1.632-1.347-3.424-1.876-5.162a93.45 93.45 0 0 1-1.466-5.335c-.375-1.538-.642-3.087-.866-4.648-.801-7.556-.557-15.151.401-22.682a280.92 280.92 0 0 1 3.863-22.926c.801-3.781 1.834-7.491 2.956-11.187l1.73-5.44c.556-1.73 1.14-3.473 1.831-5.154l.693-1.678c1.876-4.179 3.866-8.308 5.813-12.453a2.28 2.28 0 0 0 .332-2.333c-.537-1.5-2.312-2.424-3.691-2.911a10.9 10.9 0 0 0-3.701-.584l-.32.008-1.82.275a4.72 4.72 0 0 0-2.541 1.484l-5.291 11.274c-.963 2.171-1.917 4.34-2.745 6.566l-1.229-1.873a68.85 68.85 0 0 0-3.545-4.902c-.568-.724-1.133-1.467-1.783-2.12-.71-.713-1.439-1.393-2.202-2.05-.73-.63-1.458-1.253-2.334-1.672-1.543-.735-3.192-1.173-4.902-1.273-.724-.041-1.454-.088-2.182-.077l-.228.005c-.861.03-1.728.176-2.569.36-.833.186-1.626.567-2.399.921-.634.294-1.247.65-1.845 1.015-.908.554-1.78 1.129-2.651 1.741-.612.43-1.192 1.004-1.766 1.491a14.58 14.58 0 0 0-.952.891c-.329.332-.693.652-.995 1.009l-1.188 1.42a13.5 13.5 0 0 0-.65.858c-.304.425-.641.841-.918 1.284-.534.859-1.07 1.711-1.557 2.597-.479.874-.919 1.758-1.355 2.652-.519 1.056-.981 2.174-1.407 3.273l-1.138 3.008c-1.003 2.755-1.898 5.541-2.753 8.341l-1.292 1.887c-1.009 1.538-1.92 3.148-2.843 4.737-1.946 3.35-3.839 6.731-5.547 10.208-1.736 3.535-3.463 7.079-5.007 10.704s-3.027 7.282-4.467 10.954c-1.423 3.624-2.643 7.318-3.868 11.011l-1.853 5.568c-.623 1.84-1.308 3.66-1.99 5.478-.586 1.555-1.22 3.084-1.87 4.609-.584 1.27-1.143 2.582-1.868 3.773-1.067 1.752-2.215 3.49-3.699 4.918l-.235.187c-.213-.562-.4-1.133-.592-1.683-.425-1.215-.773-2.454-1.152-3.683-.773-2.492-1.316-5.01-1.73-7.586-.845-7.203-.985-14.463-.798-21.71.203-7.814.847-15.634 1.809-23.388.464-3.732 1.066-7.439 1.689-11.146.658-3.923 1.324-7.842 2.163-11.73.644-2.985 1.379-5.944 2.179-8.886l.389-.334c1.125-.973 2.207-1.985 3.269-3.022l2.539-2.475c.694-.675 1.327-1.421 1.987-2.13 1.182-1.267 2.35-2.575 3.411-3.946l2.016-2.604c.645-.833 1.222-1.727 1.831-2.588 2.108-2.977 4.083-6.062 6.084-9.116 1.067-1.629 2.16-3.251 3.144-4.932.971-1.659 1.919-3.328 2.807-5.031l2.687-5.31c.483-1.014.932-2.037 1.371-3.071.39-.916.697-1.856 1.02-2.799.619-1.804 1.02-3.674 1.428-5.535.417-1.894.62-3.852.809-5.78.118-1.212.135-2.459.085-3.672-.05-1.264-.296-2.523-.622-3.742-.496-1.873-2.271-3.052-4.016-3.613-1.034-.334-2.086-.475-3.131-.46-2.862.042-5.673 1.272-7.932 3.038-1.942 1.516-3.808 3.296-5.272 5.287-.587.8-1.21 1.584-1.765 2.407l-1.832 2.733c-.584.869-1.081 1.809-1.618 2.707-.42.704-.814 1.417-1.211 2.136-1.946 3.532-3.844 7.085-5.632 10.701-.963 1.95-1.804 3.965-2.652 5.968l-2.079 5.009c-1.466 3.646-2.882 7.304-4.156 11.02l-3.728 11.342a192.25 192.25 0 0 0-3.109 11.146c-.96 3.893-1.75 7.811-2.454 11.756-.859 4.823-1.661 9.657-2.308 14.512l-6.115 2.16-4.927 1.711.186-.383c1.003-2.105 1.974-4.223 2.837-6.389.672-1.686 1.321-3.422 1.643-5.218.349-1.964.603-3.92.793-5.906.189-1.942.011-3.891-.178-5.824-.068-.7-.186-1.401-.282-2.097-.06-.416-.107-.833-.19-1.244-.338-1.637-.693-3.252-1.412-4.779-.442-.943-.902-1.868-1.387-2.791-.578-1.102-1.329-2.125-2.023-3.155-.53-.785-1.157-1.502-1.779-2.216a21.63 21.63 0 0 0-3.842-3.432c-.546-.384-1.149-.689-1.746-.984a27.38 27.38 0 0 0-2.404-1.048c-.54-.205-1.096-.37-1.645-.549-1.209-.397-2.481-.633-3.723-.9-1.854-.397-3.802-.469-5.687-.578-.938-.053-1.875-.082-2.813-.068l-.652.016c-.974.036-1.942.124-2.914.216-2.135.201-4.249.521-6.363.869-1.802.299-3.595.74-5.358 1.21a111.49 111.49 0 0 0-5.868 1.738c-.869.286-1.725.622-2.58.952l6.016-6.929 7.447-8.722c2.371-2.863 4.444-5.988 6.429-9.128 2.094-3.315 4.112-6.676 6.095-10.056 1.081-1.84 1.974-3.779 2.819-5.736.768-1.78 1.499-3.575 2.106-5.417.587-1.779 1.149-3.598 1.491-5.443.34-1.839.633-3.709.527-5.587-.121-2.15-.349-4.278-1.037-6.334-.486-1.459-1.25-2.703-2.106-3.973-.379-.564-.83-1.048-1.33-1.505-.708-.645-1.492-1.27-2.344-1.717-2.155-1.135-4.579-1.801-7.003-1.765-.924.014-1.848.131-2.758.36-.97.246-1.892.677-2.811 1.075-.449.194-.883.416-1.324.631-1.642.812-3.153 1.87-4.65 2.918-.412.29-.797.636-1.192.951-.438.349-.864.71-1.278 1.086-.79.718-1.552 1.453-2.311 2.205-2.637 2.613-5.168 5.358-7.612 8.149-2.585 2.948-5.147 5.947-7.244 9.272-2.023 3.206-3.82 6.55-5.631 9.879l-5.879 10.928c-1.835 3.46-3.499 7-5.173 10.539-.386.815-.716 1.659-1.067 2.49-.365.863-.757 1.717-1.094 2.591l-2.043 5.313-4.401 11.619c-1.358 3.709-2.578 7.468-3.828 11.214-1.116 3.34-2.182 6.707-3.076 10.115l-1.02 3.896c-.167.631-.351 1.262-.491 1.902l-1.341 6.126-1.239 6.421-.127.715c-.763-6.882-1.188-13.805-1.253-20.728l.165-23.351c.074-7.575.378-15.148.859-22.705a371.73 371.73 0 0 1 .957-11.896l.604-5.809c.225-1.919.554-3.811.905-5.708.689-3.705 1.717-7.353 2.857-10.94.058-.91-.241-1.683-.907-2.323-1.182-1.321-3.159-1.974-4.853-2.215a9.35 9.35 0 0 0-1.623-.115 10.39 10.39 0 0 0-.543.024 9.99 9.99 0 0 0-1.64.261l-1.473.593c-.416.219-.749.494-1.003.831l-.496 1.691-.545 1.818-.952 3.166-.962 3.232c-.19.831-.367 1.664-.527 2.501-.757 3.926-1.177 7.877-1.573 11.852-.77 7.712-1.262 15.458-1.527 23.203-.26 7.765-.291 15.527-.406 23.292-.112 7.639-.069 15.266.439 22.885.277 4.212.677 8.403 1.24 12.587l.782 5.616c.255 1.886.501 3.768.867 5.639l.505 2.375.261 1.182c.201.902.774 1.658 1.346 2.367a7.08 7.08 0 0 0 2.808 1.692c1.247.422 2.53.606 3.847.553 1.124-.033 2.18-.312 3.169-.841a2.73 2.73 0 0 0 1.473-1.914c.063-.688-.03-1.374-.162-2.053l.172-2.105.412-4.093c.077-.773.104-1.576.236-2.344l.441-2.544.996-5.709 1.255-6.419c.787-4.016 1.834-7.967 2.876-11.919.899-3.406 1.969-6.773 3.085-10.115l3.83-11.212 4.4-11.619 1.985-5.154c.567-1.462 1.215-2.898 1.835-4.34l2.519-5.303c.82-1.722 1.739-3.405 2.611-5.1 1.793-3.498 3.739-6.918 5.635-10.359l2.951-5.306c.856-1.533 1.733-3.06 2.682-4.537.496-.773.965-1.568 1.517-2.301l2.021-2.687c.631-.836 1.352-1.618 2.023-2.423.545-.653 1.114-1.283 1.68-1.919 3.405-3.819 6.906-7.609 10.778-10.961l1.552-1.157c.497-.368 1.048-.678 1.569-1.014.992-.638 2.067-1.144 3.128-1.653.915-.351 1.831-.666 2.792-.864.105-.009.213-.014.318-.019.036.005.072.009.107.016.017.005.033.011.049.016a8.59 8.59 0 0 1 .54.335c.22.214.42.445.608.689.62 1.111.952 2.344 1.151 3.598.362 3.523-.302 6.999-1.247 10.383-.74 2.645-1.743 5.215-2.783 7.754-.652 1.454-1.329 2.893-2.067 4.307-.883 1.695-1.895 3.323-2.896 4.951l-6.037 9.533c-1.119 1.665-2.243 3.325-3.439 4.935-1.137 1.528-2.388 2.964-3.632 4.406l-7.471 8.727c-2.087 2.448-4.236 4.845-6.404 7.221l-3.343 3.696-1.692 1.884c-.542.597-1.121 1.146-1.574 1.815-.532.7-.641 1.461-.326 2.282a4.61 4.61 0 0 0 1.979 2.092 9.59 9.59 0 0 0 3.578 1.223l1.994.098a7.22 7.22 0 0 0 3.243-.856c1.124-.83 2.097-1.772 3.03-2.8l1.288-1.44c.02-.009.038-.022.058-.033 1.228-.645 2.478-1.233 3.737-1.81a108.59 108.59 0 0 1 4.327-1.864c2.528-.924 5.072-1.776 7.682-2.452 1.396-.36 2.796-.748 4.212-1.022l3.616-.638c1.522-.181 3.041-.332 4.574-.439 1.248-.087 2.489-.079 3.735-.036 1.785.161 3.545.379 5.303.708 1.278.345 2.525.741 3.746 1.261.688.345 1.349.732 1.976 1.177 1.092.957 1.974 2.089 2.81 3.268a22.27 22.27 0 0 1 .798 1.399c.343.674.647 1.349.944 2.045.623 1.459 1.02 3.052 1.259 4.622.178 1.687.228 3.424.11 5.114a50.37 50.37 0 0 1-.257 2.711c-.107.87-.275 1.73-.427 2.594-.291 1.656-.732 3.309-1.212 4.921-.279.937-.595 1.853-.919 2.775-.176.502-.39.995-.604 1.484-1.577 3.38-3.235 6.74-5.24 9.889-1.392 2.185-2.914 4.267-4.516 6.293l-10.383 3.488-22.159 8.278c-7.476 2.974-14.773 6.355-22.156 9.539l-21.12 9.239c-3.584 1.587-7.117 3.276-10.635 5.006l-10.451 5.004a179.35 179.35 0 0 0-5.593 2.818c-.855.45-1.692.937-2.528 1.421-1.987 1.152-3.927 2.358-5.561 3.994-1.015 1.017-1.687 2.208-2.249 3.52-.255.593-.442 1.179-.516 1.821-.058.475.068 1.047.126 1.486.044.337.115.652.217.976"/><path d="M455.606 377.204l-.047.181c-.883 3.41-1.9 7.044-3.202 11.436l-2.199 7.537-4.667 15.551c-.398 1.244-.828 2.506-1.311 3.857-1.234 3.173-2.648 6.328-4.016 9.379l-.463 1.029-2.549 5.478c-.839 1.716-1.873 3.343-2.873 4.918l-.129.203c-.645 1.017-1.352 2.098-2.168 3.118-.919 1.149-1.894 2.245-2.64 3.07-.696.773-1.439 1.525-2.158 2.253l-.419.427-1.059 1.083-1.325 1.354c-1.229 1.11-2.517 2.161-3.729 3.144l-.477.394c-.543.447-1.102.911-1.691 1.316-.433.301-.926.587-1.544.908-1.088.445-2.298.834-3.701 1.187a15.71 15.71 0 0 1-1.329.162l-.469-.031-.579-.167a8.58 8.58 0 0 1-.545-.301c-.913-.732-1.799-1.634-2.709-2.759-1.25-1.848-2.374-3.853-3.403-5.742-1.018-1.875-1.494-4.005-1.859-5.853-.206-1.445-.389-2.863-.343-4.312a65.81 65.81 0 0 1 .338-4.88c.066-.634.165-1.302.321-2.161l.019-.109c.12-.68.246-1.387.461-2.048a134.38 134.38 0 0 1 1.48-4.33l.151-.403c.576-1.543 1.171-3.137 1.88-4.645.803-1.714 1.738-3.512 2.942-5.654.978-1.741 2.084-3.359 3.328-5.144 1.281-1.846 2.413-3.307 3.559-4.604l3.428-3.8c.885-.952 1.843-1.868 2.77-2.755l.332-.316c1.218-1.124 2.671-2.449 4.198-3.756 1.354-1.16 2.832-2.325 4.647-3.666 2.583-1.908 5.631-3.709 9.591-5.67a114.49 114.49 0 0 1 8.14-3.425l.261-.098c1.933-.724 3.932-1.472 5.944-2.061zm-78.023-82.744l-.151.545-.45 1.632-1.119 4.219c-.551 2.281-.954 4.182-1.269 5.983l-.049.275-.047.271-2.202 3.183-1.898 2.589-1.658 2.253c-1.176 1.64-2.212 3.332-3.17 4.927l-.098.161-6.134 10.276c-1.7 2.895-3.293 5.911-4.836 8.828l-.886 1.676c-1.717 3.235-3.291 6.027-4.815 8.536-.745 1.225-1.58 2.498-2.629 4.008-.693.993-1.453 2.046-2.336 3.016-.323-.811-.579-1.686-.806-2.75-.283-1.752-.425-3.49-.527-4.96l-.024-.348-.327-5.157c-.172-3.529-.102-7.282.216-11.811.304-4.343.708-8.162 1.237-11.68.318-2.105.732-4.171 1.097-5.916.379-1.834.765-3.696 1.273-5.495.691-2.448 1.472-4.91 2.229-7.293l.087-.279 2.171-6.641a84.01 84.01 0 0 1 2.486-5.661c1.255-2.593 2.849-5.568 5.157-7.957 1.181-1.037 2.388-1.883 3.587-2.515a12.54 12.54 0 0 1 1.569-.532 10.91 10.91 0 0 1 .724-.085 14.37 14.37 0 0 1 .368.033c.332.085.68.195 1.125.353a29.29 29.29 0 0 1 2.797 1.483c.803.586 1.499 1.159 2.125 1.75.699.663 1.321 1.414 1.895 2.128.553.784 1.122 1.593 1.593 2.467a63.49 63.49 0 0 1 1.658 3.271c.463.987.902 2.01 1.305 3.043l.771 2.035zm-83.688 16.974l-.263 1.691-1.122 1.513a147.15 147.15 0 0 0-3.208 4.721c-2.183 3.323-4.096 6.86-5.868 10.199l-1.514 2.846-4.145 7.888-1.606 3.177-3.882 7.504c-1.015 1.857-2.13 3.694-3.206 5.47l-1.528 2.539-.771 1.302-1.551 2.607-.466.787c-.483.823-.984 1.673-1.551 2.451l-.17-.434c-.529-1.41-.933-2.698-1.239-3.94-.472-3.203-.727-6.712-.776-10.732-.055-4.119.112-8.107.493-11.855.353-3.466.826-7.564 1.673-11.661.734-3.565 1.607-7.707 2.665-11.752.976-3.724 1.883-6.766 2.852-9.569a59.7 59.7 0 0 1 1.985-4.341c.79-1.555 1.692-3.054 2.39-4.186.757-1.229 1.78-2.837 2.977-4.359.782-.989 1.687-1.991 2.849-3.159 1.091-.952 2.144-1.697 3.218-2.275a13.35 13.35 0 0 1 1.5-.512 12.57 12.57 0 0 1 1.026-.115l.094-.006c.438.021.877.061 1.341.124a12.75 12.75 0 0 1 1.118.321c.653.301 1.314.678 2.079 1.188.545.43 1.182.952 1.766 1.549.564.578 1.074 1.198 1.458 1.673.671.955 1.19 1.908 1.588 2.909l.649 1.667.789 2.122.395 1.056c-.101.723-.225 1.398-.353 2.073l-.264 1.365-.875 4.721-.546 3.435m186.683-44.589a9.69 9.69 0 0 0-1.623-.019c-.723.052-1.447.189-2.15.408-.996.342-2.689 1.152-2.829 2.726-.353 3.962-.935 7.957-1.497 11.822l-.091.622-.457 3.249c-1.376 1.503-2.736 3.082-4.042 4.686l-2.141 2.616-5.495 6.814-3.835 4.935c-1.248 1.621-2.432 3.32-3.535 4.921L450.589 313l-.949 1.404-.899 1.318-2.382 3.554c-1.335 2.076-2.619 4.227-3.863 6.306l-2.569 4.249-.433.699-2.586 4.264-1.79 3.126-1.362 2.385c-1.011 1.765-2.119 3.507-3.186 5.195l-.797 1.255-.441.7-1.247 1.922.194-4.716c.247-3.731.804-7.488 1.344-11.12l.131-.875.96-5.949c.315-1.779.726-3.573 1.122-5.308l.077-.34c.888-3.879 1.845-8.001 2.962-12.004.814-2.915 1.492-5.912 2.149-8.812l.66-2.884c1.003-4.302 1.854-7.886 2.895-11.562.389-1.363.852-2.709 1.256-3.864l-.053.099.072-.151.025-.075 3.794-10.389c.008-.94-.351-1.725-1.067-2.338-1.491-1.478-3.838-1.88-5.103-1.987a10.29 10.29 0 0 0-1.676-.017 9.85 9.85 0 0 0-2.22.419l-.741.348-.735.345c-.809.488-1.294 1.203-1.442 2.122l-1.059 2.925-1.801 4.677-1.343 3.452-1.599 2.048c-2.136 2.802-3.997 5.843-5.796 8.785l-.872 1.425-2.475 3.915-.811 1.267c-.985 1.539-1.993 3.112-2.843 4.724-1.042 1.971-2.045 4.001-3.014 5.966l-2.397 4.781-3.09 5.867-2.707 5.121-1.124 2.157-4.491 8.738c-1.743 3.488-3.487 7.156-5.336 11.211l-.335.735-2.21 4.873a72.07 72.07 0 0 1-2.634 5.269 47.25 47.25 0 0 1-1.108 1.927 8.13 8.13 0 0 1-1.144 1.443c-.423.36-.856.723-1.299 1.063-.195-1.585-.266-3.132-.337-4.99-.063-1.643-.074-3.408-.033-5.716.066-3.803.294-7.74.699-12.036l.027-.269c.735-7.805 1.499-15.877 2.986-23.705l.15-.776.965-5.265c.299-1.796.666-3.915 1.102-6.026.345-1.658.782-3.326 1.207-4.936l.249-.948.403-1.554 1.125-4.277c.441-1.64.932-3.296 1.404-4.896l.546-1.851 2.084-6.936a2.88 2.88 0 0 0-1.055-2.309c-1.469-1.462-3.794-1.861-5.048-1.966a10.25 10.25 0 0 0-1.658-.021 10.04 10.04 0 0 0-2.196.417l-1.052.496-.405.192c-.801.48-1.281 1.185-1.429 2.097l-1.535 4.713-1.716 5.286a22.51 22.51 0 0 0-1.114-2.223c-.896-1.543-2.131-3.532-3.753-5.262-1.377-1.472-2.991-2.781-4.929-4.005-1.384-.87-3.016-1.832-4.896-2.21-1.743-.353-3.561-.464-5.406-.331a23.36 23.36 0 0 0-4.93.913c-.671.198-1.318.475-1.944.741l-.116.05c-1.698.716-3.112 1.506-4.321 2.413-2.013 1.514-3.608 3.487-4.944 5.218-1.33 1.722-2.375 3.591-3.222 5.191a56.16 56.16 0 0 0-2.457 5.247c-1.436 3.554-2.827 7.476-4.381 12.336-.475 1.488-.922 3.063-1.329 4.683l-.06.083c-.952 1.396-1.946 2.97-3.038 4.812l-.455.763c-.845 1.417-1.721 2.882-2.49 4.368a150.16 150.16 0 0 0-2.764 5.62c-.839 1.79-1.555 3.671-2.246 5.489l-.031.082c-1.209 3.178-2.339 6.451-3.432 9.616l-.628 1.813-2.141 6.068-.504 1.377-1.466 4.165c-.434 1.362-.811 2.766-1.173 4.123l-.37 1.381-1.728 6.16c-.77 2.712-1.442 5.494-2.092 8.182l-.809 3.314c-1.001 4.039-1.909 8.198-2.682 11.781l-.638 3.04-.751 3.556a43.72 43.72 0 0 1-.707 2.741l.005-.213-.057-1.055-.176-3.024-.055-1.3-.203-4.54-.05-1.031-.206-4.883c-.052-1.876-.033-3.784-.014-5.632l.003-.401.011-1.335.066-4.675c.047-1.826.153-3.679.253-5.472l.039-.652.842-11.776 1.195-11.921.974-7.968.504-3.987c.551-4.464 1.096-8.124 1.713-11.516a219.23 219.23 0 0 0 .88-5.325l1.074-6.364 1.776-9.785.37-2.101c.286-1.636.65-3.282 1-4.873l.187-.853.275-1.272.998-4.433 2.906-11.628.146-.568 1.399-5.346c.31-1.124.666-2.253 1.011-3.348l.73-2.377c1.007-3.419 1.717-6.308 2.231-9.087a2.9 2.9 0 0 0-1.058-2.317c-1.481-1.467-3.811-1.865-5.069-1.971a11.72 11.72 0 0 0-1.769-.008c-1.341.098-4.507.603-4.993 3.2-.708 3.783-1.79 7.699-3.402 12.325-1.201 3.439-2.16 7.022-3.087 10.484l-.348 1.3c-1.148 4.267-2.084 8.022-2.865 11.477l-.275 1.211-.974 4.43-.247 1.255c-.593-.922-1.3-1.802-1.924-2.578-.652-.801-1.403-1.521-2.051-2.119-1.42-1.308-2.884-2.289-4.351-2.914l-.143-.06c-.949-.405-1.933-.823-2.945-1.1-.888-.242-1.815-.375-2.715-.502l-.08-.009c-1.105-.159-2.231-.142-3.321-.124l-.383.006a8.26 8.26 0 0 0-.367.017 13.3 13.3 0 0 0-1.425.205c-.967.183-2.001.397-3.016.716-.93.296-1.856.746-2.8 1.218-.745.375-1.428.77-2.087 1.209-.982.647-1.883 1.437-2.755 2.199-.968.85-1.955 1.81-3.036 2.953-1.396 1.481-2.564 3.26-3.595 4.828-1.041 1.582-2.128 3.298-3.022 5.127-2.015 4.121-3.334 8.469-4.511 12.566-.943 3.282-1.807 6.83-2.802 11.502l-.513 2.537-.582.99c-1.721 2.926-3.498 5.952-5.001 9.056-1.497 3.093-2.764 6.358-3.99 9.514l-.636 1.634-1.914 4.952-2.481 6.396-1.396 3.614-1.395 3.613c-.46 1.155-.981 2.465-1.606 3.715-.505 1.015-.935 1.758-1.396 2.415-.019-.082-.046-.17-.069-.255l-.252-1.006c-.176-.715-.356-1.453-.603-2.166-.474-1.369-.812-2.426-1.092-3.432-.257-.918-.463-1.864-.63-2.668-.582-3.891-.718-7.844-.806-11.559-.09-3.86.298-7.55.812-11.971.405-3.491.998-7.014 1.573-10.421l.222-1.321c.721-4.278 1.495-8.086 2.369-11.642.937-3.798 1.961-7.246 3.132-10.539l4.466-11.129c.513-.767.582-1.584.205-2.426-.688-1.615-2.785-2.437-3.973-2.78a11.37 11.37 0 0 0-3.85-.383l-.326.027-1.832.384c-1.047.299-1.897.864-2.55 1.686l-2.205 5.256-.085.14-.088.142-.858 1.38c-.776 1.242-1.577 2.525-2.297 3.828-1.727 3.121-3.205 6.424-4.633 9.616l-.652 1.454-1.924 4.244-2.963 6.569c-1.602 3.619-3.121 7.52-4.515 11.597l-1.584 4.685-3.298 9.572-1.439 3.842.011-.025-.013.035.006.002h-.008l-.074.206h-.002l-.002.003h.002l-.008.019-.168.45-.08.22-.242.644a.3.3 0 0 0-.017.069c.003.002-.013.055-.013.055s-.027.061-.024.063-.017.049-.017.049l.024-.083-.008-.003-.005.024-.004-.004v.002l-.003.013-.014.058-.008-.003-.027.072c-.013.041-.027.08-.042.121l-.422 1.129-.225.603-.167.452c-.781 2.101-1.694 4.595-2.541 7.158l-.512 1.562-1.584 4.664c-1.201 2.991-2.783 6.405-5.413 9.064a17.6 17.6 0 0 1-.653.545l-.168-.59c-.268-.959-.456-1.919-.661-2.983-.28-1.539-.593-3.365-.781-5.234-.179-1.824-.184-3.694-.189-5.505l-.002-.29c-.008-3.912.198-7.918.611-11.91.433-4.176.982-8.023 1.681-11.76.767-4.118 1.618-8.115 2.528-11.881.615-2.55 1.305-5.146 1.902-7.378l.194-.724c.57-2.146 1.16-4.363 1.876-6.504l.39-1.034 1.867-5.061c.891-2.553 1.634-4.848 2.276-7.017.009-.954-.356-1.754-1.086-2.378-1.514-1.506-3.912-1.917-5.206-2.029a10.49 10.49 0 0 0-1.706-.017c-.762.055-1.524.2-2.262.427l-1.503.708a2.98 2.98 0 0 0-1.472 2.16c-.567 1.908-1.239 3.954-2.053 6.254a33.53 33.53 0 0 1-1.085 1.144c-1.154 1.036-2.341 1.856-3.627 2.511-.878.378-1.829.693-2.903.96a22.62 22.62 0 0 1-2.152.257l-.422.027a30.92 30.92 0 0 1-2.922-.252 18 18 0 0 1-.847-.233 16.24 16.24 0 0 1-.976-.559c-.414-.324-.848-.691-1.327-1.124-.4-.356-.754-.785-1.018-1.118-.902-1.362-1.582-2.632-2.076-3.883-.464-1.179-.845-2.487-1.198-4.116a43.51 43.51 0 0 1-.302-2.09c-.093-.789-.12-1.598-.145-2.382l-.019-.575c-.06-1.757-.019-3.652.121-5.798l.014-.216c.12-1.897.246-3.858.519-5.771a51.23 51.23 0 0 1 1.188-5.871 75.69 75.69 0 0 1 1.709-5.498l1.1-2.887 2.437-6.507a3.03 3.03 0 0 0-1.105-2.423c-1.544-1.536-3.983-1.952-5.298-2.062-.568-.053-1.152-.06-1.735-.019a10.49 10.49 0 0 0-2.305.434l-.763.359-.77.362a3.04 3.04 0 0 0-1.497 2.199l-.53 1.456-.819 2.122c-1.25 3.23-2.541 6.57-3.528 9.955-.532 1.818-.982 3.776-1.338 5.816-.332 1.894-.507 3.783-.666 6.034-.269 3.79-.433 7.844.179 11.8.423 2.73.911 4.776 1.584 6.637a14.09 14.09 0 0 0 1.245 2.58c.49.801 1.1 1.539 1.576 2.094.329.383.713.751 1.174 1.13a22.38 22.38 0 0 0 2.278 1.626c.513.32.946.581 1.421.806 1.349.647 2.775 1.209 4.236 1.672 2.758.874 5.656.905 8.377.814a33.87 33.87 0 0 0 1.097-.058c3.158-.23 5.98-.962 8.39-2.174a2.16 2.16 0 0 0-.129.332c-.51 1.464-.924 2.991-1.325 4.469l-.367 1.341c-1.184 4.266-2.141 8.05-2.928 11.57a253.96 253.96 0 0 0-2.293 11.493c-.348 2.007-.593 4.047-.834 6.134-.249 2.139-.466 4.072-.611 6.043-.283 3.853-.367 7.822-.246 11.795.05 1.732.231 3.507.567 5.596.211 1.302.46 2.676.954 3.932a18.89 18.89 0 0 0 1.248 2.571 11.52 11.52 0 0 0 .729 1.107c.107.143.213.294.32.445.398.56.809 1.14 1.338 1.571 1.414 1.155 2.925 1.925 4.755 2.421a10.77 10.77 0 0 0 3.595.348c.853-.061 1.694-.227 2.498-.488.881-.29 1.703-.789 2.391-1.239 1.39-.905 2.443-2.15 3.206-3.133 1.237-1.598 2.164-3.491 2.909-5.133.889-1.963 1.624-4.044 2.273-5.879.422-1.195.809-2.423 1.184-3.611l.634-1.987c.562-1.719 1.215-3.594 2.054-5.905l.841-2.301 3.073-8.604 2.081-6.24 3.721-10.923a132.26 132.26 0 0 1 2.213-5.44l1.029-2.327a126.97 126.97 0 0 0-.726 3.957l-.168.99c-.592 3.488-1.204 7.096-1.62 10.673-.477 4.039-.897 7.993-.803 11.974a156.89 156.89 0 0 0 .263 6.189c.134 2.149.321 4.637.848 7.005.461 2.089.926 3.953 1.933 5.64 1.432 2.401 2.961 4.28 4.67 5.749l1.262 1.042c1.278 1.02 2.56 1.692 4.031 2.111 1.088.307 2.224.42 3.376.338a9.9 9.9 0 0 0 1.98-.349c1.749-.496 2.933-1.982 3.484-2.821.638-.973 1.105-2.116 1.48-3.035.359-.872.71-1.832 1.072-2.939l2.487-7.422 1.835-5.083.535-1.453.055-.154.08-.217 3.081-8.119 1.141-2.988a119.15 119.15 0 0 1 1.996-4.913c-.25 2.83-.375 5.661-.383 8.412-.009 4.115.198 7.915.633 11.614.153 1.3.332 2.681.691 4.003a43.82 43.82 0 0 0 .853 2.78c.477 1.387 1.325 2.523 2.084 3.48.279.349.609.748 1 1.056.457.364.944.699 1.417 1.023l.34.235c.68.471 1.469.759 2.232 1.037l.216.079c.79.29 1.65.409 2.482.526l.146.019a8.66 8.66 0 0 0 1.766.049 8.81 8.81 0 0 0 .741-.085c1.59-.246 2.818-.713 3.751-1.423.836-.633 1.618-1.376 2.323-2.213.627-.738 1.081-1.615 1.48-2.451.386-.808.745-1.642 1.092-2.451.405-.941.823-1.913 1.284-2.848.853-1.727 1.769-3.458 2.656-5.132l2.863-5.56 1.965-4.049 3.315-6.803c1.802-3.641 3.726-7.29 5.423-10.51l.294-.562 2.375-4.39.967-1.639-.667 5.124-.324 2.593-.041.326-1.351 11.406-1.133 12.133c-.342 4.278-.57 8.462-.751 11.993-.194 3.798-.198 7.584-.186 11.781.014 3.649.198 7.623.562 12.155a71.93 71.93 0 0 0 .727 5.881c.094.581.209 1.157.326 1.736l.116.589c.168.855.469 1.694.919 2.566a20.62 20.62 0 0 0 2.528 3.761c.348.409.688.732 1.039.987l.121.088c.685.507 1.393 1.029 2.172 1.404 1.763.848 3.482 1.218 5.111 1.102a7.84 7.84 0 0 0 1.513-.261c1.426-.397 2.676-1.437 3.52-2.928.326-.579.557-1.218.781-1.835l.057-.156c.167-.455.34-.943.471-1.453l.105-.395c.099-.365.198-.73.279-1.097l.611-2.909 1.086-6.383 1.006-5.938.31-1.724.762-4.146.842-4.121.354-1.706c.729-3.52 1.591-7.282 2.637-11.501l.286-1.155 1.196-4.708a63.59 63.59 0 0 1 1.802-5.609l3.65-10.068 2.186-6.065c1.116-2.977 2.635-6.877 4.504-10.677l.557-1.111c-.209 1.662-.387 3.457-.575 5.642-.345 4.017-.494 7.949-.442 11.683.022 1.547.129 3.118.233 4.639l.061.905.063 1c.094 1.508.194 3.065.397 4.587.179 1.357.449 2.704.686 3.858.162.77.375 1.67.729 2.504.14.332.313.716.54 1.053l.065.098c.442.669.899 1.358 1.511 1.88.694.587 1.528 1.244 2.448 1.645.568.252 1.149.474 1.73.696l.386.148c.66.255 1.392.335 2.098.416l.258.031a9.38 9.38 0 0 0 1.727.024 11.85 11.85 0 0 0 2.544-.469c.656-.2 1.286-.565 1.842-.886.938-.545 1.788-1.388 2.347-1.974 1.387-1.458 2.404-3.202 3.136-4.56l2.153-3.979 3.48-6.444 2.525-4.844 2.904-5.544c1.824-3.365 3.775-6.733 5.664-9.991l.376-.652 1.011-1.76 1.928-3.328c.376-.633.768-1.256 1.17-1.87a145.17 145.17 0 0 0-1.063 7.148c-.463 3.671-.891 7.592-1.311 11.985-.367 3.896-.737 8.041-.848 12.127a146.19 146.19 0 0 0-.043 5.859c.024 1.768.049 3.772.266 5.701l.014.127c.165 1.473.338 2.999 1.086 4.285.49.839 1.103 1.599 1.732 2.139 1.264 1.094 2.564 1.623 3.894 2.112.981.362 2.053.515 3.066.623a10.23 10.23 0 0 0 1.908.027c.825-.06 1.691-.2 2.805-.46.699-.161 1.316-.463 1.969-.785l.219-.105c.477-.231.915-.512 1.333-.856.811-.661 1.528-1.451 2.327-2.56.442-.615.85-1.324 1.286-2.223.409-.844.721-1.75 1.023-2.63l.261-.748a69.34 69.34 0 0 1 1.174-2.766l.978-2.275c.823-2.018 1.687-3.986 2.424-5.643l5.165-11.257c2.663-5.59 5.549-11.179 8.338-16.588l2.769-5.38 1.744-3.454 3.762-7.269c.886-1.607 1.963-3.192 2.991-4.675l1.129-1.631 1.13-1.631-.639 2.652-2.072 8.31c-1.14 4.031-2.098 8.138-2.983 12.001a190.28 190.28 0 0 0-1.204 5.648c-.335 1.702-.593 3.449-.844 5.138l-.12.812-.132.88c-.54 3.632-1.099 7.386-1.347 11.116-.124 1.881-.162 3.724-.197 5.768l-.025 2.898c.006 1.376.175 2.678.516 3.981.175.674.619 1.218 1.047 1.747l.346.438.263.224a10.33 10.33 0 0 0 1.615 1.094 8.72 8.72 0 0 0 2.278.826l1.903.343a39.58 39.58 0 0 0 2.149-.027l.159-.008c.877-.065 1.938-.422 2.985-1.009.543-.304 1.144-.815 1.84-1.565.726-.779 1.466-1.692 2.26-2.791 1.133-1.565 2.043-3.315 2.923-5.004l1.229-2.418 1.382-2.704 2.813-5.494a118.22 118.22 0 0 1 2.903-5.453l1.791-3.076 1.163-1.983 1.288-2.264 1.558-2.73c1.033-1.754 2.139-3.543 3.381-5.478l2.254-3.425.927-1.396.37-.56 2.866-4.239c2.032-2.857 4.363-5.911 7.337-9.613l4.63-5.714-.105.575-.019.11c-.43 2.56-.954 5.144-1.461 7.644l-.82 4.11c-.623 3.221-1.092 6.531-1.544 9.731l-.34 2.38-.639 4.568-1.044 7.268-.66 3.924-.338 1.963-.301 1.812-.683 3.983-2.777 14.005-1.998 9.904-.068.353-.859 4.354a3.21 3.21 0 0 1-.653 1.88l-2.956.822-2.742.808-.145.044c-.911.283-1.801.562-2.657.902a35.5 35.5 0 0 0-1.817.787l-1.204.394a62.28 62.28 0 0 0-2.827 1.063c-.937.383-1.87.771-2.785 1.206-.976.464-1.938.952-2.895 1.453l-2.514 1.366c-.518.296-1.017.627-1.521.944-2.662 1.489-5.402 3.328-8.507 5.739-2.892 2.249-5.835 4.878-9.544 8.53-2.728 2.684-5.372 5.827-7.86 9.338a58.03 58.03 0 0 0-3.099 4.896c-1.001 1.787-2.015 3.592-2.796 5.461a115.68 115.68 0 0 0-2.306 5.964l-.253.704c-.598 1.651-1.217 3.361-1.539 5.105-.331 1.779-.682 3.872-.8 5.934-.118 2.024-.197 4.006.124 5.997.364 2.271.734 4.31 1.555 6.268.371.872.826 1.717 1.267 2.536l.071.131.482.905.897 1.654c1.867 3.299 3.924 5.549 6.285 6.879.595.338 1.264.584 1.914.823l.416.154c.793.301 1.648.445 2.476.586l.288.047.208.038c.389.068.79.139 1.188.161 1.256.076 2.586.057 4.193-.06l.203-.014c2.186-.173 4.544-.576 7.209-1.236 2.452-.601 4.726-1.936 6.728-3.114s3.54-2.249 4.856-3.376c.866-.74 1.694-1.558 2.495-2.35l.639-.628.286-.28 1.708-1.716c1.22-1.299 2.646-2.86 3.948-4.598.893-1.188 1.692-2.478 2.467-3.724l.748-1.196c.93-1.467 1.675-3.09 2.397-4.661l.312-.677 1.511-3.329.924-2.046c2.023-4.445 3.619-8.434 4.883-12.193 1.083-3.216 2.062-6.522 3.01-9.719l.464-1.566 3.399-11.626.877-3.011 2.369-8.343c.639-2.388 1.237-4.918 1.883-7.963.005-.058.013-.113.025-.172a3.73 3.73 0 0 1 .071-.29l.033-.159.046-.227.068-.079c.008-.06.014-.118.028-.176l.039-.165.006-.101.006.002c.017-.14.055-.286.094-.422l.022-.123.024-.126c.009-.043.014-.087.021-.134l-.031.027-.028.024 1.159-5.785 1.539-7.69 2.388-11.826 1.56-8.95.477-2.851c.505-2.986.919-6.038 1.318-8.99l.389-2.846 1.801-12.295c.31-1.974.705-3.967 1.088-5.894l1.061-5.725c.401-2.495.671-4.401.877-6.185l.392-3.592.246-2.275.178-1.631 1.297-12.968c.009-.907-.337-1.669-1.028-2.262-1.445-1.434-3.723-1.823-4.952-1.925M140.88 324.222c-2.029-.756-4.071-.875-6.119-.727-1.637.118-3.276.408-4.918.682l-5.289.927-4.491 1.045.491-4.995c.356-4.005.633-8.003.738-12.022.104-3.779-.096-7.579-.096-11.362 0-20.012-1.865-34.983-2.289-42.925a3.04 3.04 0 0 0-.921-2.52c-1.245-1.447-3.356-2.196-5.173-2.497a10.51 10.51 0 0 0-2.558-.131 10.63 10.63 0 0 0-1.544.228l-1.596.606a3.04 3.04 0 0 0-1.68 2.094c.423 7.938 2.29 25.132 2.29 42.926 0 3.779.198 7.578.096 11.357-.109 4.019-.384 8.02-.741 12.025l-1.277 12.434c-4.57 1.998-8.991 4.299-13.079 7.209-1.695 1.207-3.35 2.429-4.984 3.713-1.957 1.543-3.835 3.173-5.695 4.837a1.64 1.64 0 0 0-.274 1.676c.365 1.094 1.634 1.79 2.621 2.16.937.34 1.9.501 2.896.477l1.319-.167a3.43 3.43 0 0 0 1.856-1.036l3.4-2.933c1.135-.858 2.256-1.768 3.458-2.528 1.604-1.017 3.2-1.998 4.862-2.914.782-.428 1.585-.82 2.396-1.198l-.159 1.141c-1.122 7.485-3.285 14.783-5.124 22.112-.79 3.153-1.642 6.296-2.634 9.393-.867 2.706-1.996 5.354-3.159 7.952a86.01 86.01 0 0 1-4.26 7.551c-1.253 1.99-2.785 3.696-4.544 5.221-.959.666-1.953 1.259-3.013 1.757a18.76 18.76 0 0 1-2.35.571c-.416.036-.831.057-1.25.061-.274-.035-.545-.079-.819-.129-.351-.112-.699-.233-1.042-.373a19.18 19.18 0 0 1-2.27-1.508c-.869-.782-1.659-1.609-2.342-2.56-.893-1.557-1.623-3.225-2.292-4.888-.631-1.568-1.195-3.161-1.643-4.793-.916-3.35-1.541-6.718-1.939-10.161-.261-3.161-.43-6.32-.479-9.492-.05-3.132.422-6.274.853-9.368.436-3.125 1.026-6.251 1.9-9.284.452-1.566.911-3.136 1.492-4.659a100.56 100.56 0 0 1 1.88-4.56c.97-2.016 2.016-3.964 3.219-5.854 1.316-2.079 2.671-4.162 4.134-6.144.76-1.029-.54-1.944-1.382-2.264-1.029-.389-2.791-.546-3.583.428-1.204 1.475-2.257 3.07-3.315 4.655-1.015 1.527-2.053 3.059-2.911 4.681-1.919 3.627-3.517 7.375-4.774 11.28-1.13 3.518-1.848 7.195-2.371 10.847-.538 3.761-1.006 7.505-.886 11.312.241 7.679.859 15.508 3.611 22.757.713 1.876 1.461 3.74 2.35 5.541.904 1.828 2.293 3.517 3.855 4.823 1.933 1.617 4.034 3.062 6.5 3.743 1.214.332 2.396.623 3.639.781 1.318.164 2.652.224 3.981.268a22.6 22.6 0 0 0 6.951-.845c2.123-.611 4.193-1.443 6.018-2.698 1.791-1.229 3.499-2.681 4.781-4.452 1.171-1.617 2.237-3.28 3.255-4.998 1.118-1.88 2.065-3.888 2.909-5.9l2.204-5.489c1.34-3.565 2.245-7.299 3.195-10.983 1.895-7.32 3.938-14.639 5.124-22.112.456-2.871.803-5.755 1.138-8.64a109.88 109.88 0 0 1 6.69-1.851c2.586-.619 5.185-1.041 7.817-1.415l3.768-.543a63.65 63.65 0 0 0 2.907-.499c1.708-.135 4.058-.801 4.374-2.712.346-2.1-2.106-3.55-3.709-4.148"/><path d="M121.873 245.448l-.072.008.15-.019-.077.011m37.617 1.76c3.669-.926 7.335-1.911 10.904-3.17 3.899-1.374 7.729-2.915 11.532-4.533 3.106-1.324 6.241-2.674 9.223-4.261 3.408-1.812 6.718-3.994 9.382-6.818 1.273-1.349 2.44-2.785 3.572-4.255 1.099-1.428 2.001-2.986 2.849-4.573a2.42 2.42 0 0 0 .406-2.468c-.537-1.607-2.404-2.63-3.855-3.175a11.55 11.55 0 0 0-4.258-.702l-1.941.247a5.05 5.05 0 0 0-2.731 1.519c-2.112 3.964-4.881 7.538-8.237 10.52-1.333.998-2.719 1.927-4.193 2.712a101.79 101.79 0 0 1-5.448 2.681 244.2 244.2 0 0 1-10.885 4.644c-3.197 1.168-6.426 2.212-9.714 3.093-3.792 1.018-7.603 1.966-11.422 2.866-3.735.878-7.494 1.706-11.29 2.27l-10.753 1.538c-3.473.405-6.954.623-10.444.867l-11.474.9-11.508 1.107c-3.937.401-7.886.614-11.823.992-4.412.423-8.733 1.283-13.064 2.179-3.693.765-7.34 1.576-10.909 2.807-7.839 2.704-15.581 6.613-21.317 12.746-2.333 2.498-4.115 5.492-5.317 8.677-.573 1.517-.922 3.158-1.204 4.749-.279 1.577-.39 3.17-.384 4.773a22.69 22.69 0 0 0 .693 5.454c.365 1.428.87 2.911 1.579 4.204 1.958 3.597 5.04 6.336 8.954 7.63 1.077.357 2.977.622 3.792-.453.845-1.111-.615-2.024-1.464-2.399a2.05 2.05 0 0 0-.137-.061 15.53 15.53 0 0 1-1.647-1.1c-.661-.62-1.234-1.319-1.744-2.067-.954-1.675-1.417-3.471-1.68-5.369-.132-1.931.058-3.767.472-5.667.394-1.81 1.042-3.564 1.755-5.272a33.35 33.35 0 0 1 1.333-2.503c.557-.935 1.28-1.785 1.993-2.602a46.06 46.06 0 0 1 4.362-4.352c4.562-3.439 9.701-6.062 15-8.168 3.254-1.133 6.553-2.117 9.93-2.816l10.652-2.097c3.298-.36 6.605-.56 9.912-.855l11.541-1.111 11.538-.979c3.871-.274 7.76-.46 11.623-.858 4.493-.464 8.957-1.187 13.43-1.82l5.61-.841c1.938-.337 3.857-.76 5.777-1.179 3.693-.811 7.362-1.725 11.028-2.649m247.624-103.271l-1.829 1.25c.005-.011.009-.027.014-.038 1.092-3.457 2.27-6.871 3.546-10.26a160.16 160.16 0 0 1 4.584-10.022c1.719-3.432 3.542-6.81 5.714-9.98l3.687-5.206c1.113-1.522 2.328-2.974 3.526-4.428 2.393-2.901 4.847-5.772 7.397-8.535a98.85 98.85 0 0 1 2.311-2.424c.623-.628 1.273-1.229 1.925-1.831 1.421-1.185 2.87-2.344 4.43-3.347 1.535-.985 3.087-1.895 4.724-2.681.855-.312 1.703-.589 2.588-.8l.101.11c.444.79.734 1.667.919 2.553.157 1.535.047 3.098-.15 4.623-.172 1.341-.513 2.652-.922 3.935-.334 1.05-.696 2.083-1.085 3.11-.778 1.664-1.7 3.23-2.648 4.804l-2.981 4.817c-1.988 3.156-4.26 6.15-6.668 8.99a216.99 216.99 0 0 1-5.906 6.696c-1.768 1.914-3.622 3.721-5.547 5.469-2.731 2.308-5.539 4.533-8.407 6.666-3.043 2.264-6.2 4.373-9.322 6.526m77.659 75.087c-1.744-.638-3.524-1.173-5.269-1.818-1.535-.565-3.032-1.206-4.524-1.876-2.083-1.009-4.086-2.19-5.99-3.499-1.766-1.215-3.521-2.448-5.221-3.748-2.153-1.771-4.178-3.701-6.086-5.731-2.114-2.253-4.118-4.625-6.16-6.94-1.999-2.267-3.864-4.628-5.727-7.003-1.922-2.451-3.868-4.862-5.632-7.425-1.602-2.429-3.172-4.873-4.62-7.397-.836-1.462-1.612-2.956-2.413-4.437l-2.383-4.439c-1.525-3.033-3.093-6.059-4.324-9.229-.592-1.528-1.045-3.12-1.551-4.681-.527-1.639-1.105-3.257-1.692-4.877-.08-.165-.176-.315-.271-.469l.615-.493 1.806-1.425.795-.619a9.05 9.05 0 0 1 .586-.46 7.86 7.86 0 0 1 .48-.315l.963-.66.979-.765c1.484-1.163 2.989-2.309 4.42-3.534 1.839-1.574 3.638-3.181 5.384-4.855 1.36-1.296 2.616-2.703 3.879-4.094a137.06 137.06 0 0 0 7.219-8.662c2.309-3.003 4.239-6.265 6.082-9.569a109 109 0 0 0 1.36-2.539c.568-1.08 1.137-2.182 1.554-3.329.652-1.79 1.052-3.622 1.351-5.503a33.06 33.06 0 0 0 .274-2.073c.127-1.343-.033-2.678-.213-4.006-.201-1.51-.409-3.074-1.012-4.482-.332-.773-.811-1.453-1.294-2.141-.403-.571-.823-1.132-1.324-1.626-.532-.526-1.245-1.006-1.922-1.338-.77-.373-1.584-.699-2.423-.882-.575-.129-1.088-.253-1.658-.309a11.8 11.8 0 0 0-1.497-.025l-.137.005a3.82 3.82 0 0 0-.302.024c-.79.076-1.584.299-2.341.534-.564.17-1.113.401-1.664.611-.593.222-1.247.488-1.807.779-1.716.886-3.348 1.88-4.957 2.944s-3.112 2.284-4.582 3.535c-1.503 1.273-2.9 2.703-4.228 4.159-1.275 1.396-2.533 2.807-3.762 4.247l-3.705 4.408-3.861 4.908c-1.179 1.543-2.251 3.177-3.331 4.787-1.037 1.549-2.007 3.134-2.931 4.748-1.314 2.297-2.467 4.675-3.581 7.073l1.555-9.171 2.013-11.548 4.11-22.156 2.344-11.327 2.761-12.242.394-1.694a2.85 2.85 0 0 0-.963-2.316c-1.22-1.297-3.222-1.909-4.927-2.111a11.08 11.08 0 0 0-1.746-.069c-2.133.08-4.513.797-5.02 2.981L405.568 68.4l-2.29 10.918c-1.56 7.464-2.893 14.975-4.231 22.482l-4.044 23.505a348.17 348.17 0 0 0-1.358 9.302l-6.153 7.014c-4.981 5.882-9.75 11.937-14.54 17.973l-7.074 8.747c-2.478 3.022-4.82 6.15-7.265 9.194-1.262 1.569-2.58 3.098-3.915 4.607-1.303 1.472-2.682 2.857-4.108 4.209-1.275 1.067-2.618 2.087-4.094 2.855a13.52 13.52 0 0 1-.545-.656 13.55 13.55 0 0 1-1.305-2.747c-.335-.989-.551-2.02-.737-3.046-.431-3.479-.475-6.997-.332-10.498.157-3.885.524-7.751 1.14-11.589.275-1.698.559-3.424.989-5.092.468-1.813.976-3.6 1.573-5.377 1.096-3.258 2.385-6.454 3.66-9.646a110.62 110.62 0 0 1 1.991-4.516c.844-1.788 1.777-3.526 2.728-5.261 1.744-3.184 3.617-6.366 5.853-9.234l1.122-1.437c.394-.504.863-.967 1.289-1.445.77-.863 1.615-1.678 2.476-2.457 1.248-1.061 2.561-2.032 4.03-2.761.406-.15.817-.277 1.237-.378.375-.038.749-.055 1.125-.06a10.31 10.31 0 0 1 .576.058 9.58 9.58 0 0 1 .545.179 10.37 10.37 0 0 1 1.107.667c.494.411.922.863 1.316 1.373.732 1.157 1.108 2.421 1.338 3.765.4 3.282-.438 6.572-1.654 9.608-.77 1.823-1.662 3.603-2.777 5.242-1.193 1.763-2.692 3.269-4.236 4.726a.84.84 0 0 0-.104.866c.211.551.875.878 1.39 1.045a4.04 4.04 0 0 0 1.494.179c.655-.052 1.13-.244 1.601-.688.943-.896 1.881-1.802 2.72-2.796a21.85 21.85 0 0 0 2.276-3.254 31.83 31.83 0 0 0 3.125-7.556 24.54 24.54 0 0 0 .702-3.63c.146-1.319.082-2.659-.105-3.972-.175-1.236-.409-2.445-.921-3.592-.526-1.185-1.351-2.286-2.301-3.161-.505-.466-1.052-.889-1.623-1.275-.606-.406-1.318-.671-1.983-.948-.763-.316-1.626-.445-2.429-.601-.729-.14-1.464-.249-2.205-.29-.553-.031-1.1-.036-1.643-.014a19.13 19.13 0 0 0-3.986.59c-.638.162-1.259.412-1.865.664a26.62 26.62 0 0 0-2.796 1.358c-1.484.834-2.826 1.876-4.178 2.904-1.034.784-1.98 1.717-2.951 2.577-.275.246-.519.535-.774.8l-1.192 1.247c-.294.307-.556.653-.83.976-.315.37-.644.732-.943 1.114-1.244 1.568-2.448 3.147-3.559 4.814-1.092 1.642-2.12 3.321-3.103 5.032-.905 1.579-1.793 3.184-2.552 4.84a227.74 227.74 0 0 0-5.069 11.995c-1.387 3.548-2.355 7.249-3.005 10.998a93.72 93.72 0 0 0-1.286 11.578c-.181 3.768-.175 7.561.327 11.307.168 1.251.383 2.498.691 3.724.225.886.469 1.787.872 2.61.595 1.215 1.357 2.371 2.197 3.425.151.189.323.356.493.529.641.649 1.426 1.174 2.201 1.651.567.351 1.76.804 2.111.941a7.39 7.39 0 0 0 .787.253c.976.26 2.034.491 3.059.567a30.7 30.7 0 0 0 2.555.074c.29-.002.578-.049.864-.093.666-.109 1.325-.216 1.98-.368.833-.197 1.629-.579 2.385-.967.565-.288 1.078-.675 1.562-1.081 1.137-.954 2.153-1.996 3.14-3.095 1.218-1.358 2.353-2.796 3.458-4.249 2.353-3.095 4.596-6.276 6.841-9.451l3.178-4.499c1.108-1.511 2.273-2.985 3.421-4.467l13.992-17.951 5.631-6.714-.586 5.426c-.4 3.943-.573 7.918-.828 11.875l-.699 11.36c-.172 3.809-.192 7.633-.244 11.445l-.047 5.632c-.019 2.172-.145 4.359.342 6.493.063.282.132.54.23.811.436.858 1.083 1.511 1.941 1.96 1.075.592 2.227.955 3.45 1.091a9.18 9.18 0 0 0 3.609-.246l1.385-.597a2.69 2.69 0 0 0 1.399-1.909c.359-.9.387-1.851.384-2.808l.016-2.915.044-5.604.239-11.584c.11-3.742.442-7.477.682-11.212l.296-4.578c.609-.159 1.198-.387 1.761-.702.34-.28.856-.43 1.25-.636.375-.195.746-.394 1.105-.612a52.09 52.09 0 0 0 2.385-1.558l1.429-.976c.457 1.456.922 2.907 1.466 4.334.65 1.716 1.488 3.358 2.295 5.006l2.448 4.881c1.846 3.416 3.647 6.858 5.67 10.175.911 1.499 1.895 2.956 2.849 4.423 1.204 1.845 2.418 3.704 3.781 5.435 2.404 3.054 4.896 6.041 7.594 8.839 2.701 2.807 5.629 5.399 8.555 7.967 3.115 2.728 6.435 5.258 9.925 7.49 1.539.984 3.123 1.889 4.696 2.818 1.667.985 3.339 1.936 5.088 2.772 2.558 1.228 5.168 2.262 7.842 3.202 1.204.423 2.427.789 3.644 1.163 1.362.422 2.752.732 4.115 1.138.678.231 1.379.329 2.095.296.76-.044 1.782-.25 2.271-.919.924-1.28-.74-2.361-1.757-2.728"/></g></svg>